<svg xmlns="http://www.w3.org/2000/svg" viewBox="0 0 512 512">
  <!-- Background rounded rect -->
  <rect width="512" height="512" rx="96" ry="96" fill="#1B2B4B"/>

  <!-- Document body -->
  <rect x="136" y="88" width="240" height="310" rx="16" ry="16" fill="#F5F0E8"/>

  <!-- Folded corner cut -->
  <polygon points="316,88 376,88 376,148 316,88" fill="#1B2B4B"/>
  <polygon points="316,88 376,148 316,148" fill="#D9D4CC"/>

  <!-- Text lines -->
  <rect x="164" y="168" width="100" height="14" rx="7" fill="#B0A898"/>
  <rect x="164" y="196" width="140" height="10" rx="5" fill="#CCC7BE"/>
  <rect x="164" y="218" width="120" height="10" rx="5" fill="#CCC7BE"/>

  <!-- Divider -->
  <rect x="164" y="244" width="184" height="2" rx="1" fill="#D9D4CC"/>

  <!-- Line items -->
  <rect x="164" y="260" width="96" height="9" rx="4.5" fill="#CCC7BE"/>
  <rect x="304" y="260" width="44" height="9" rx="4.5" fill="#CCC7BE"/>
  <rect x="164" y="278" width="80" height="9" rx="4.5" fill="#CCC7BE"/>
  <rect x="304" y="278" width="44" height="9" rx="4.5" fill="#CCC7BE"/>

  <!-- Divider -->
  <rect x="164" y="300" width="184" height="2" rx="1" fill="#D9D4CC"/>

  <!-- Total row -->
  <rect x="164" y="316" width="48" height="12" rx="6" fill="#B0A898"/>
  <rect x="290" y="316" width="58" height="12" rx="6" fill="#2A7D4F"/>

  <!-- Dollar sign circle -->
  <circle cx="256" cy="430" r="44" fill="#2A7D4F"/>
  <text x="256" y="447" font-family="Georgia, serif" font-size="52" font-weight="700" fill="#F5F0E8" text-anchor="middle">$</text>
</svg>
